<svg version="1.1" id="Layer_1" xmlns="http://www.w3.org/2000/svg" xmlns:xlink="http://www.w3.org/1999/xlink" x="0px" y="0px"
	 width="100%" viewBox="0 0 225 225" enable-background="new 0 0 225 225" xml:space="preserve">
<path fill="#0A1831" opacity="1.000000" stroke="none" 
	d="
M108.000000,226.000000 
	C72.000000,226.000000 36.500004,226.000000 1.000005,226.000000 
	C1.000003,151.000000 1.000003,76.000015 1.000002,1.000015 
	C75.999992,1.000010 150.999985,1.000010 225.999969,1.000005 
	C225.999985,75.999985 225.999985,150.999969 226.000000,225.999969 
	C186.833328,226.000000 147.666672,226.000000 108.000000,226.000000 
M135.114883,130.962692 
	C140.245605,137.703735 145.149323,144.636368 150.606140,151.102219 
	C153.199661,154.175323 156.847519,156.358643 160.571838,159.418442 
	C172.069412,164.269974 185.688522,161.871201 193.325256,153.649521 
	C202.342896,143.941162 204.408279,131.926193 197.702789,120.138481 
	C190.317276,107.155296 182.320984,94.469238 173.824341,82.183815 
	C166.569473,71.693878 156.109833,66.373291 142.211151,67.138519 
	C134.747147,67.822754 128.322876,70.802238 122.636505,75.659912 
	C119.928848,77.972969 116.891083,79.899590 113.609489,81.465210 
	C109.069496,77.645622 104.529503,73.826042 99.516838,69.477974 
	C83.501038,61.866798 67.002289,65.655685 56.151760,79.469337 
	C54.507080,81.563156 52.931919,83.716759 51.418140,85.907349 
	C44.508823,95.905823 37.396130,105.774506 30.806973,115.980652 
	C23.171467,127.807518 25.463646,144.092819 35.526917,152.937744 
	C45.629200,161.816956 61.796906,162.480164 71.920624,154.213959 
	C73.418167,152.991196 75.173531,150.665924 74.983223,149.068298 
	C74.474045,144.793793 72.972038,140.637573 71.578011,135.347092 
	C69.206070,137.981918 67.805557,139.575531 66.364716,141.131821 
	C59.148964,148.925720 46.745079,147.732407 41.744545,138.648560 
	C38.740356,133.191223 39.293091,127.694801 42.671154,122.586288 
	C49.648949,112.034042 56.587852,101.449615 63.844669,91.089912 
	C73.755585,76.941238 82.927879,74.941071 98.275269,83.760208 
	C103.096794,89.560814 107.918320,95.361420 112.979561,101.803055 
	C119.759743,110.724808 126.539917,119.646561 133.500046,128.842209 
	C133.500046,128.842209 133.823929,128.892059 134.066818,129.465042 
	C134.351959,129.755035 134.637100,130.045029 135.114883,130.962692 
M109.722786,147.029480 
	C96.675652,144.902603 91.735802,132.927567 99.488907,122.165558 
	C101.138840,119.875290 103.151649,117.806580 104.517014,115.367004 
	C105.264618,114.031227 105.726723,111.715401 105.061760,110.571632 
	C103.428772,107.762878 101.068077,105.377213 98.646667,102.384521 
	C92.446915,109.610893 85.946915,115.856781 83.213570,124.699371 
	C78.326797,140.508453 90.885048,160.647324 107.296066,161.660339 
	C117.170837,162.269882 126.503426,158.547485 132.952194,150.139664 
	C133.674988,149.197281 133.977432,147.016739 133.387726,146.150269 
	C131.393829,143.220703 128.910492,140.624268 126.288971,137.514664 
	C121.820259,142.978195 117.418915,147.216476 109.722786,147.029480 
z"/>
<path fill="#30BAA3" opacity="1.000000" stroke="none" 
	d="
M97.946053,83.198669 
	C82.927879,74.941071 73.755585,76.941238 63.844669,91.089912 
	C56.587852,101.449615 49.648949,112.034042 42.671154,122.586288 
	C39.293091,127.694801 38.740356,133.191223 41.744545,138.648560 
	C46.745079,147.732407 59.148964,148.925720 66.364716,141.131821 
	C67.805557,139.575531 69.206070,137.981918 71.578011,135.347092 
	C72.972038,140.637573 74.474045,144.793793 74.983223,149.068298 
	C75.173531,150.665924 73.418167,152.991196 71.920624,154.213959 
	C61.796906,162.480164 45.629200,161.816956 35.526917,152.937744 
	C25.463646,144.092819 23.171467,127.807518 30.806973,115.980652 
	C37.396130,105.774506 44.508823,95.905823 51.418140,85.907349 
	C52.931919,83.716759 54.507080,81.563156 56.151760,79.469337 
	C67.002289,65.655685 83.501038,61.866798 99.442604,69.923645 
	C94.805901,74.192513 98.720589,78.955528 97.946053,83.198669 
z"/>
<path fill="#1AA8AD" opacity="1.000000" stroke="none" 
	d="
M142.997833,67.251450 
	C156.109833,66.373291 166.569473,71.693878 173.824341,82.183815 
	C182.320984,94.469238 190.317276,107.155296 197.702789,120.138481 
	C204.408279,131.926193 202.342896,143.941162 193.325256,153.649521 
	C185.688522,161.871201 172.069412,164.269974 160.276855,158.800293 
	C158.679886,156.442871 156.346207,154.746201 156.272247,152.956177 
	C156.063004,147.891769 156.779419,142.789108 157.415955,137.894135 
	C159.298737,140.000412 160.774704,142.034225 162.517929,143.804916 
	C167.464264,148.829208 174.741959,149.689606 180.835449,146.116272 
	C186.629135,142.718765 189.181824,136.105072 186.972260,129.266098 
	C186.064606,126.456749 184.672852,123.723450 183.070572,121.232635 
	C175.700424,109.775322 168.480270,98.200890 160.587738,87.108612 
	C156.413971,81.242752 150.300735,78.276260 142.679794,80.778664 
	C142.226822,80.927399 141.543518,80.374657 141.172729,79.853775 
	C141.917984,75.456619 142.457901,71.354034 142.997833,67.251450 
z"/>
<path fill="#F9F9F9" opacity="1.000000" stroke="none" 
	d="
M110.138855,147.029892 
	C117.418915,147.216476 121.820259,142.978195 126.288971,137.514664 
	C128.910492,140.624268 131.393829,143.220703 133.387726,146.150269 
	C133.977432,147.016739 133.674988,149.197281 132.952194,150.139664 
	C126.503426,158.547485 117.170837,162.269882 107.296066,161.660339 
	C90.885048,160.647324 78.326797,140.508453 83.213570,124.699371 
	C85.946915,115.856781 92.446915,109.610893 98.646667,102.384521 
	C101.068077,105.377213 103.428772,107.762878 105.061760,110.571632 
	C105.726723,111.715401 105.264618,114.031227 104.517014,115.367004 
	C103.151649,117.806580 101.138840,119.875290 99.488907,122.165558 
	C91.735802,132.927567 96.675652,144.902603 110.138855,147.029892 
z"/>
<path fill="#1DAFAA" opacity="1.000000" stroke="none" 
	d="
M142.604492,67.194984 
	C142.457901,71.354034 141.917984,75.456619 140.808929,79.876404 
	C135.537643,83.433990 130.830933,86.667809 126.134911,89.917091 
	C123.094109,92.021103 123.292221,94.338631 125.454582,97.058495 
	C129.068405,101.604027 132.515076,106.282455 136.022705,111.343864 
	C135.667740,116.227859 135.417618,120.683792 134.913589,125.110825 
	C134.777267,126.308273 133.872269,127.418213 133.320099,128.568314 
	C126.539917,119.646561 119.759743,110.724808 113.170227,101.177307 
	C113.574883,94.368134 113.788872,88.184692 114.002853,82.001259 
	C116.891083,79.899590 119.928848,77.972969 122.636505,75.659912 
	C128.322876,70.802238 134.747147,67.822754 142.604492,67.194984 
z"/>
<path fill="#1AABAC" opacity="1.000000" stroke="none" 
	d="
M133.410065,128.705261 
	C133.872269,127.418213 134.777267,126.308273 134.913589,125.110825 
	C135.417618,120.683792 135.667740,116.227859 136.305984,111.528305 
	C143.442841,120.083054 150.287003,128.892288 157.131180,137.701523 
	C156.779419,142.789108 156.063004,147.891769 156.272247,152.956177 
	C156.346207,154.746201 158.679886,156.442871 159.999817,158.563599 
	C156.847519,156.358643 153.199661,154.175323 150.606140,151.102219 
	C145.149323,144.636368 140.245605,137.703735 134.912338,130.357010 
	C134.414505,129.464905 134.119217,129.178482 133.823929,128.892059 
	C133.823929,128.892059 133.500046,128.842209 133.410065,128.705261 
z"/>
<path fill="#28B5A6" opacity="1.000000" stroke="none" 
	d="
M113.806168,81.733231 
	C113.788872,88.184692 113.574883,94.368134 113.050369,100.856796 
	C107.918320,95.361420 103.096794,89.560814 98.110657,83.479439 
	C98.720589,78.955528 94.805901,74.192513 99.678940,70.187889 
	C104.529503,73.826042 109.069496,77.645622 113.806168,81.733231 
z"/>
<path fill="#1DAFAA" opacity="1.000000" stroke="none" 
	d="
M133.945374,129.178558 
	C134.119217,129.178482 134.414505,129.464905 134.816010,130.043182 
	C134.637100,130.045029 134.351959,129.755035 133.945374,129.178558 
z"/>
<path fill="#0A1932" opacity="1.000000" stroke="none" 
	d="
M157.415955,137.894135 
	C150.287003,128.892288 143.442841,120.083054 136.315384,111.089386 
	C132.515076,106.282455 129.068405,101.604027 125.454582,97.058495 
	C123.292221,94.338631 123.094109,92.021103 126.134911,89.917091 
	C130.830933,86.667809 135.537643,83.433990 140.603607,80.170975 
	C141.543518,80.374657 142.226822,80.927399 142.679794,80.778664 
	C150.300735,78.276260 156.413971,81.242752 160.587738,87.108612 
	C168.480270,98.200890 175.700424,109.775322 183.070572,121.232635 
	C184.672852,123.723450 186.064606,126.456749 186.972260,129.266098 
	C189.181824,136.105072 186.629135,142.718765 180.835449,146.116272 
	C174.741959,149.689606 167.464264,148.829208 162.517929,143.804916 
	C160.774704,142.034225 159.298737,140.000412 157.415955,137.894135 
z"/>
</svg>