<?xml version="1.0" standalone="no"?>
<!DOCTYPE svg PUBLIC "-//W3C//DTD SVG 20010904//EN"
 "http://www.w3.org/TR/2001/REC-SVG-20010904/DTD/svg10.dtd">
<svg version="1.0" xmlns="http://www.w3.org/2000/svg"
 width="900.000000pt" height="900.000000pt" viewBox="0 0 900.000000 900.000000"
 preserveAspectRatio="xMidYMid meet">

<g transform="translate(0.000000,900.000000) scale(0.100000,-0.100000)"
fill="#000000" stroke="none">
<path d="M4075 8990 c-3 -5 -44 -10 -90 -10 -46 0 -86 -4 -89 -9 -3 -4 -32 -8
-65 -8 -33 0 -67 -5 -75 -12 -8 -7 -35 -11 -60 -10 -26 2 -51 -2 -58 -9 -7 -7
-31 -12 -54 -12 -24 0 -46 -5 -49 -11 -4 -6 -19 -9 -35 -7 -15 1 -35 -4 -44
-11 -9 -7 -27 -11 -41 -9 -14 3 -30 -1 -36 -8 -6 -8 -26 -14 -45 -14 -18 0
-36 -5 -39 -11 -4 -6 -19 -9 -35 -7 -15 1 -35 -3 -44 -11 -8 -7 -22 -11 -30
-8 -8 3 -20 -1 -26 -9 -7 -8 -23 -14 -36 -14 -12 0 -26 -5 -30 -11 -3 -6 -15
-9 -25 -6 -10 3 -24 -2 -30 -10 -7 -8 -21 -12 -30 -10 -10 3 -24 -2 -30 -10
-7 -8 -21 -12 -31 -10 -10 3 -20 1 -23 -4 -9 -14 -73 -41 -84 -35 -5 4 -12 2
-16 -4 -9 -15 -73 -42 -84 -36 -5 4 -12 2 -15 -3 -10 -16 -154 -83 -165 -77
-5 4 -12 2 -16 -4 -3 -5 -35 -23 -70 -40 -35 -17 -67 -35 -70 -40 -3 -5 -44
-27 -90 -50 -46 -23 -87 -45 -90 -51 -4 -5 -26 -18 -50 -29 -24 -11 -47 -24
-50 -30 -3 -6 -25 -19 -49 -30 -23 -10 -49 -26 -56 -35 -7 -8 -18 -15 -24 -15
-7 0 -25 -13 -41 -30 -16 -16 -34 -30 -40 -30 -7 0 -20 -9 -30 -20 -10 -11
-23 -20 -30 -20 -6 0 -24 -13 -40 -30 -16 -16 -34 -30 -40 -30 -6 0 -24 -13
-40 -30 -16 -16 -34 -30 -40 -30 -6 0 -33 -22 -60 -50 -27 -27 -55 -50 -61
-50 -6 0 -47 -36 -90 -80 -42 -44 -82 -80 -88 -80 -14 0 -186 -171 -186 -185
0 -6 -36 -46 -80 -90 -44 -44 -80 -84 -80 -90 0 -6 -23 -33 -50 -60 -28 -27
-50 -54 -50 -60 0 -6 -13 -24 -30 -40 -16 -16 -30 -34 -30 -40 0 -6 -13 -24
-30 -40 -16 -16 -30 -34 -30 -40 0 -7 -9 -20 -20 -30 -11 -10 -20 -23 -20 -30
0 -6 -14 -24 -30 -40 -17 -16 -30 -34 -30 -41 0 -6 -7 -17 -15 -24 -9 -7 -25
-33 -35 -56 -11 -24 -24 -46 -30 -49 -6 -3 -19 -26 -30 -50 -11 -24 -24 -46
-29 -49 -5 -4 -26 -41 -47 -84 -21 -42 -44 -85 -52 -94 -18 -22 -82 -148 -82
-164 0 -6 -18 -46 -40 -89 -22 -43 -40 -84 -40 -91 0 -7 -9 -29 -20 -49 -11
-20 -20 -42 -20 -50 0 -8 -9 -30 -20 -50 -11 -20 -20 -44 -20 -55 0 -10 -5
-22 -10 -25 -6 -3 -10 -17 -10 -30 0 -13 -5 -27 -10 -30 -6 -3 -10 -17 -10
-30 0 -13 -4 -27 -10 -30 -5 -3 -10 -17 -10 -30 0 -13 -4 -27 -10 -30 -5 -3
-10 -17 -10 -30 0 -13 -5 -27 -10 -30 -6 -3 -10 -21 -10 -40 0 -19 -5 -37 -10
-40 -6 -3 -10 -21 -10 -40 0 -19 -4 -37 -10 -40 -5 -3 -10 -21 -10 -40 0 -19
-4 -37 -10 -40 -5 -3 -10 -21 -10 -40 0 -19 -4 -37 -10 -40 -5 -3 -10 -26 -10
-50 0 -24 -4 -47 -10 -50 -5 -3 -10 -30 -10 -60 0 -30 -5 -57 -10 -60 -6 -3
-10 -34 -10 -69 0 -35 -5 -67 -12 -74 -17 -17 -23 -889 -8 -1067 6 -71 13
-159 16 -195 3 -36 10 -69 15 -74 5 -6 9 -34 9 -62 0 -29 4 -56 10 -59 5 -3
10 -26 10 -50 0 -24 5 -47 10 -50 6 -3 10 -21 10 -40 0 -19 4 -36 9 -39 8 -6
14 -31 27 -119 4 -20 10 -40 15 -43 5 -3 9 -20 9 -39 0 -19 5 -37 10 -40 6 -3
10 -17 10 -30 0 -13 5 -27 10 -30 5 -3 10 -17 10 -30 0 -13 5 -27 10 -30 5 -3
10 -17 10 -30 0 -13 5 -27 10 -30 6 -3 10 -17 10 -30 0 -13 5 -27 10 -30 6 -3
10 -14 10 -25 0 -10 8 -35 19 -57 37 -77 61 -134 61 -146 0 -6 18 -48 40 -91
22 -43 40 -85 40 -92 0 -14 66 -142 85 -164 7 -8 32 -52 56 -98 71 -135 87
-164 104 -182 8 -9 15 -20 15 -24 0 -11 86 -141 104 -155 9 -7 16 -19 16 -26
0 -6 9 -20 20 -30 11 -10 20 -22 20 -28 0 -5 15 -27 33 -48 17 -21 46 -56 62
-79 89 -124 447 -520 470 -520 6 0 46 -36 90 -80 44 -44 84 -80 90 -80 6 0 33
-23 60 -50 27 -28 54 -50 60 -50 6 0 24 -14 40 -30 16 -17 34 -30 40 -30 6 0
24 -13 40 -30 16 -16 34 -30 40 -30 7 0 20 -9 30 -20 10 -11 23 -20 30 -20 6
0 24 -13 40 -30 16 -16 34 -30 41 -30 6 0 17 -7 24 -15 7 -9 33 -25 56 -35 24
-11 46 -24 49 -30 3 -6 26 -19 50 -30 24 -11 46 -24 49 -29 4 -5 41 -26 84
-47 42 -21 85 -44 94 -52 22 -18 148 -82 164 -82 6 0 46 -18 89 -40 43 -22 84
-40 91 -40 7 0 29 -9 49 -20 20 -11 42 -20 50 -20 8 0 30 -9 50 -20 20 -11 44
-20 55 -20 10 0 22 -4 25 -10 3 -5 17 -10 30 -10 13 0 27 -4 30 -10 3 -5 17
-10 30 -10 13 0 27 -4 30 -10 3 -5 17 -10 30 -10 13 0 27 -4 30 -10 3 -5 17
-10 30 -10 13 0 27 -4 30 -10 3 -5 21 -10 40 -10 19 0 37 -5 40 -10 3 -6 21
-10 40 -10 19 0 37 -4 40 -10 3 -5 21 -10 40 -10 19 0 37 -4 40 -10 3 -5 21
-10 40 -10 19 0 37 -4 40 -10 3 -5 26 -10 50 -10 24 0 47 -5 50 -10 3 -6 30
-10 60 -10 30 0 57 -4 60 -10 3 -5 37 -10 75 -10 48 0 69 -4 73 -14 8 -20
1186 -20 1194 0 4 10 25 14 73 14 38 0 72 5 75 10 3 6 30 10 60 10 30 0 57 5
60 10 3 6 26 10 50 10 24 0 47 4 50 10 3 5 21 10 40 10 19 0 37 5 40 10 3 6
21 10 40 10 19 0 37 5 40 10 3 6 21 10 40 10 19 0 37 5 40 10 3 6 21 10 40 10
19 0 37 5 40 10 3 6 17 10 30 10 13 0 27 5 30 10 3 6 17 10 30 10 13 0 27 5
30 10 3 6 17 10 30 10 13 0 27 5 30 10 3 6 17 10 30 10 13 0 27 5 30 10 3 6
15 10 25 10 11 0 35 9 55 20 20 11 42 20 50 20 8 0 30 9 50 20 20 11 42 20 49
20 7 0 48 18 91 40 43 22 83 40 89 40 16 0 142 64 164 82 9 8 52 31 94 52 43
21 80 42 84 47 3 5 25 18 49 29 24 11 47 24 50 30 3 6 25 19 49 30 23 10 49
26 56 35 7 8 18 15 24 15 7 0 25 13 41 30 16 16 34 30 40 30 7 0 20 9 30 20
10 11 23 20 30 20 6 0 24 13 40 30 16 16 34 30 40 30 6 0 24 14 40 30 16 17
34 30 40 30 6 0 33 23 60 50 27 28 54 50 60 50 6 0 46 36 90 80 44 44 84 80
90 80 19 0 393 409 448 490 9 14 33 45 52 70 19 25 55 74 80 110 25 36 61 85
80 110 19 25 40 56 46 70 6 14 26 48 45 77 19 28 34 55 34 59 0 4 6 15 14 23
8 9 31 50 52 91 21 41 44 83 52 92 19 23 82 149 82 164 0 7 18 48 40 90 22 43
40 83 40 90 0 8 9 29 20 49 11 20 20 42 20 50 0 8 9 30 20 50 11 20 20 44 20
55 0 10 5 22 10 25 6 3 10 17 10 30 0 13 5 27 10 30 6 3 10 17 10 30 0 13 5
27 10 30 6 3 10 17 10 30 0 13 5 27 10 30 6 3 10 17 10 30 0 13 5 27 10 30 6
3 10 21 10 40 0 19 4 36 9 39 5 3 11 23 15 43 13 88 19 113 27 119 5 3 9 20 9
39 0 19 5 37 10 40 6 3 10 25 10 49 0 23 4 46 9 51 5 6 12 35 15 65 3 30 10
89 16 130 26 187 31 336 28 783 -3 345 -7 470 -16 479 -7 7 -12 39 -12 74 0
35 -4 66 -10 69 -5 3 -10 30 -10 60 0 30 -4 57 -10 60 -5 3 -10 26 -10 50 0
24 -4 47 -10 50 -5 3 -10 21 -10 40 0 19 -4 37 -10 40 -5 3 -10 21 -10 40 0
19 -4 37 -10 40 -5 3 -10 21 -10 40 0 19 -4 37 -10 40 -5 3 -10 21 -10 40 0
19 -4 37 -10 40 -5 3 -10 17 -10 30 0 13 -4 27 -10 30 -5 3 -10 17 -10 30 0
13 -4 27 -10 30 -5 3 -10 17 -10 30 0 13 -4 27 -10 30 -5 3 -10 17 -10 30 0
13 -4 27 -10 30 -5 3 -10 15 -10 25 0 11 -9 35 -20 55 -11 20 -20 42 -20 50 0
8 -9 30 -20 50 -11 20 -20 42 -20 49 0 7 -18 48 -40 91 -22 43 -40 83 -40 89
0 16 -64 142 -82 164 -8 9 -31 52 -52 94 -21 43 -42 80 -47 84 -5 3 -18 25
-29 49 -11 24 -24 47 -30 50 -6 3 -19 25 -30 49 -10 23 -26 49 -35 56 -8 7
-15 18 -15 24 0 7 -13 25 -30 41 -16 16 -30 34 -30 40 0 7 -9 20 -20 30 -11
10 -20 23 -20 30 0 6 -13 24 -30 40 -16 16 -30 34 -30 40 0 6 -13 24 -30 40
-16 16 -30 34 -30 40 0 6 -22 33 -50 60 -27 27 -50 54 -50 60 0 6 -34 44 -76
85 -42 41 -79 83 -82 92 -10 23 -172 188 -186 188 -6 0 -47 36 -91 80 -44 44
-84 80 -90 80 -6 0 -33 23 -60 50 -27 28 -55 50 -61 50 -7 0 -24 14 -37 30
-14 17 -32 30 -40 30 -9 0 -27 14 -40 30 -14 17 -33 30 -41 30 -9 0 -21 9 -28
20 -7 11 -20 20 -29 20 -8 0 -28 14 -44 30 -16 17 -34 30 -41 30 -6 0 -17 7
-24 15 -7 9 -33 25 -56 35 -24 11 -46 24 -49 30 -3 6 -26 19 -50 30 -24 11
-46 24 -49 29 -4 5 -41 26 -84 47 -42 21 -85 44 -94 52 -22 18 -148 82 -164
82 -6 0 -46 18 -89 40 -43 22 -83 40 -90 40 -16 0 -73 29 -80 41 -4 5 -11 7
-16 3 -11 -6 -75 21 -84 35 -3 5 -13 7 -23 4 -10 -2 -24 2 -31 10 -6 8 -20 13
-30 10 -9 -2 -23 2 -30 10 -6 8 -20 13 -30 10 -9 -2 -23 2 -30 10 -6 8 -20 13
-30 10 -9 -2 -23 2 -30 10 -6 8 -20 13 -30 10 -10 -3 -22 0 -25 6 -4 6 -22 11
-41 11 -19 0 -37 5 -40 10 -3 6 -21 10 -40 10 -19 0 -37 5 -40 10 -3 6 -21 10
-40 10 -19 0 -37 5 -40 10 -3 6 -21 10 -40 10 -19 0 -37 5 -40 10 -3 6 -25 10
-49 10 -23 0 -47 5 -54 12 -7 7 -33 11 -60 9 -31 -1 -52 3 -60 11 -7 9 -31 13
-71 12 -34 -1 -64 2 -67 7 -3 5 -43 9 -89 9 -46 0 -87 5 -90 10 -4 6 -157 10
-425 10 -268 0 -421 -4 -425 -10z m645 -210 c0 -6 47 -10 120 -10 73 0 120 -4
120 -10 0 -6 33 -10 80 -10 47 0 80 -4 80 -10 0 -6 26 -10 59 -10 33 0 63 -4
66 -10 3 -5 30 -10 60 -10 30 0 57 -4 60 -10 3 -5 21 -10 40 -10 19 0 37 -4
40 -10 3 -5 26 -10 50 -10 24 0 47 -4 50 -10 3 -5 17 -10 30 -10 13 0 27 -4
30 -10 3 -5 21 -10 40 -10 19 0 37 -4 40 -10 3 -5 17 -10 30 -10 13 0 27 -4
30 -10 3 -5 21 -10 40 -10 19 0 37 -4 40 -10 3 -5 15 -10 25 -10 11 0 35 -9
55 -20 20 -11 44 -20 55 -20 10 0 22 -4 25 -10 3 -5 15 -10 25 -10 11 0 35 -9
55 -20 20 -11 42 -20 49 -20 8 0 40 -13 71 -30 31 -16 62 -30 69 -30 15 0 302
-144 324 -162 9 -8 42 -27 73 -42 32 -14 62 -33 69 -41 7 -8 18 -15 25 -15 6
0 20 -9 30 -20 10 -11 23 -20 30 -20 7 0 20 -9 30 -20 10 -11 23 -20 30 -20 7
0 20 -9 30 -20 10 -11 23 -20 30 -20 7 0 20 -9 30 -20 10 -11 23 -20 30 -20 6
0 24 -13 40 -30 16 -16 34 -30 40 -30 6 0 24 -13 40 -30 16 -16 34 -30 40 -30
6 0 33 -22 60 -50 27 -27 54 -50 60 -50 6 0 46 -36 90 -80 44 -44 84 -80 91
-80 15 0 231 -234 367 -397 29 -35 67 -80 85 -102 17 -21 32 -43 32 -48 0 -5
14 -22 30 -38 17 -16 30 -34 30 -40 0 -7 9 -20 20 -30 11 -10 20 -23 20 -30 0
-7 9 -20 20 -30 11 -10 20 -23 20 -30 0 -7 9 -20 20 -30 11 -10 20 -23 20 -30
0 -7 9 -20 20 -30 11 -10 20 -24 20 -30 0 -7 7 -18 15 -25 8 -7 27 -37 41 -69
15 -31 34 -64 42 -73 19 -23 182 -349 182 -365 0 -7 9 -28 20 -48 11 -20 20
-42 20 -50 0 -8 9 -30 20 -50 11 -20 20 -44 20 -55 0 -10 5 -22 10 -25 6 -3
10 -16 10 -28 0 -12 9 -37 20 -55 11 -18 20 -41 20 -52 0 -10 5 -22 10 -25 6
-3 10 -21 10 -40 0 -19 5 -37 10 -40 6 -3 10 -17 10 -30 0 -13 5 -27 10 -30 6
-3 10 -21 10 -40 0 -19 5 -37 10 -40 6 -3 10 -21 10 -40 0 -19 5 -37 10 -40 6
-3 10 -21 10 -40 0 -19 4 -36 9 -39 9 -6 17 -47 27 -141 3 -27 10 -54 15 -59
5 -6 9 -34 9 -62 0 -29 5 -56 10 -59 6 -3 10 -39 10 -79 0 -39 4 -76 9 -81 19
-19 39 -671 21 -689 -6 -6 -10 -58 -10 -122 0 -65 -4 -115 -10 -119 -5 -3 -10
-39 -10 -80 0 -41 -4 -77 -10 -80 -5 -3 -10 -30 -10 -60 0 -30 -4 -57 -10 -60
-5 -3 -10 -30 -10 -60 0 -30 -4 -57 -10 -60 -5 -3 -10 -21 -10 -40 0 -19 -4
-37 -10 -40 -5 -3 -10 -26 -10 -50 0 -24 -4 -47 -10 -50 -5 -3 -10 -17 -10
-30 0 -13 -4 -27 -10 -30 -5 -3 -10 -21 -10 -40 0 -19 -4 -37 -10 -40 -5 -3
-10 -17 -10 -30 0 -13 -5 -27 -10 -30 -5 -3 -10 -21 -10 -40 0 -19 -4 -37 -10
-40 -5 -3 -10 -15 -10 -25 0 -11 -9 -35 -20 -55 -11 -20 -20 -44 -20 -55 0
-10 -4 -22 -10 -25 -5 -3 -10 -15 -10 -25 0 -11 -9 -35 -20 -55 -11 -20 -20
-42 -20 -50 0 -8 -9 -30 -20 -50 -11 -20 -20 -41 -20 -48 0 -16 -163 -342
-182 -365 -8 -9 -27 -42 -42 -73 -14 -32 -33 -62 -41 -69 -8 -7 -15 -20 -15
-29 0 -9 -9 -22 -20 -29 -11 -7 -20 -18 -20 -26 0 -7 -9 -21 -20 -31 -11 -10
-20 -23 -20 -30 0 -7 -9 -20 -20 -30 -11 -10 -20 -23 -20 -30 0 -7 -9 -20 -20
-30 -11 -10 -20 -23 -20 -30 0 -6 -13 -24 -30 -40 -16 -16 -30 -34 -30 -40 0
-6 -13 -24 -30 -40 -16 -16 -30 -34 -30 -41 0 -7 -22 -34 -50 -60 -27 -26 -50
-52 -50 -58 0 -5 -35 -47 -77 -93 -43 -45 -112 -120 -153 -167 -41 -46 -82
-84 -90 -85 -9 0 -51 -37 -95 -81 -44 -44 -85 -80 -91 -80 -6 0 -32 -23 -58
-50 -26 -28 -53 -50 -60 -50 -7 0 -25 -13 -41 -30 -16 -16 -34 -30 -40 -30 -6
0 -24 -13 -40 -30 -16 -16 -35 -30 -42 -30 -7 0 -18 -9 -25 -20 -7 -11 -20
-20 -29 -20 -9 0 -24 -9 -34 -20 -10 -11 -23 -20 -30 -20 -7 0 -20 -9 -30 -20
-10 -11 -24 -20 -31 -20 -8 0 -19 -9 -26 -20 -7 -11 -21 -20 -30 -20 -10 0
-23 -9 -30 -20 -7 -11 -18 -20 -24 -20 -15 0 -101 -44 -122 -63 -9 -8 -88 -49
-174 -91 -87 -43 -160 -82 -164 -87 -3 -6 -12 -8 -19 -5 -15 5 -71 -19 -81
-35 -3 -5 -14 -7 -23 -4 -10 3 -24 -1 -31 -10 -7 -8 -16 -13 -20 -10 -4 3 -13
-2 -20 -10 -6 -7 -18 -11 -26 -8 -8 3 -23 -2 -34 -12 -10 -9 -23 -14 -28 -11
-11 6 -68 -20 -78 -35 -3 -5 -14 -7 -23 -4 -10 3 -23 -1 -30 -8 -6 -8 -23 -13
-38 -11 -15 1 -35 -4 -45 -13 -9 -8 -22 -12 -28 -8 -6 4 -20 -1 -30 -10 -13
-11 -28 -15 -43 -11 -16 4 -29 0 -37 -9 -7 -9 -21 -13 -30 -10 -9 3 -22 -1
-28 -8 -7 -8 -26 -12 -49 -10 -23 1 -43 -3 -55 -13 -11 -11 -26 -14 -41 -10
-15 3 -29 1 -36 -7 -6 -9 -29 -13 -58 -11 -29 1 -54 -4 -63 -12 -9 -8 -34 -12
-63 -10 -29 2 -51 -2 -58 -10 -7 -9 -33 -12 -80 -10 -47 1 -73 -2 -80 -11 -8
-8 -43 -12 -120 -11 -63 0 -114 -4 -121 -10 -20 -16 -424 -14 -438 3 -7 9 -38
11 -116 8 -82 -3 -110 0 -123 10 -11 10 -36 14 -83 12 -45 -2 -71 2 -78 10 -7
8 -26 11 -55 7 -32 -3 -51 0 -63 10 -11 9 -35 14 -64 12 -30 -1 -52 3 -59 12
-7 9 -21 11 -36 8 -15 -4 -30 -1 -41 9 -10 9 -31 14 -54 12 -23 -2 -41 2 -49
11 -6 8 -20 12 -29 9 -9 -3 -23 1 -30 10 -8 9 -21 13 -37 9 -15 -4 -30 0 -43
11 -11 10 -26 15 -34 12 -8 -3 -20 1 -27 9 -8 10 -21 13 -37 9 -16 -4 -31 0
-43 10 -10 10 -22 14 -28 11 -6 -4 -29 5 -51 19 -22 14 -45 23 -51 19 -6 -3
-19 2 -29 11 -10 9 -24 14 -30 10 -6 -4 -19 -1 -28 7 -32 25 -63 39 -73 32 -6
-3 -19 2 -30 12 -10 9 -19 13 -19 9 0 -4 -9 0 -20 10 -10 9 -26 15 -34 12 -9
-4 -18 -2 -21 3 -3 4 -79 45 -170 90 -91 45 -167 86 -170 91 -3 5 -34 22 -68
37 -34 16 -68 37 -76 46 -7 9 -19 16 -26 16 -6 0 -20 9 -30 20 -10 11 -23 20
-30 20 -7 0 -20 9 -30 20 -10 11 -23 20 -30 20 -7 0 -20 9 -30 20 -10 11 -23
20 -30 20 -7 0 -20 9 -30 20 -10 11 -23 20 -30 20 -6 0 -24 13 -40 30 -16 16
-34 30 -40 30 -6 0 -24 13 -40 30 -16 16 -34 30 -41 30 -7 0 -34 22 -60 50
-26 27 -52 50 -59 50 -7 0 -48 36 -91 80 -42 44 -83 80 -91 80 -15 0 -163 150
-163 165 0 6 -36 46 -80 90 -44 44 -80 84 -80 90 0 6 -22 33 -50 60 -28 27
-50 54 -50 60 0 6 -14 24 -30 40 -17 16 -30 34 -30 40 0 6 -14 24 -30 40 -17
16 -30 34 -30 40 0 7 -9 20 -20 30 -11 10 -20 24 -20 30 0 7 -7 19 -16 26 -9
7 -20 22 -25 34 -5 11 -25 40 -43 65 -19 25 -35 50 -35 56 -1 6 -8 17 -16 24
-8 7 -29 41 -45 76 -17 35 -35 66 -40 69 -11 7 -160 306 -160 321 0 7 -13 38
-30 69 -16 31 -30 63 -30 71 0 7 -9 29 -20 49 -11 20 -20 44 -20 55 0 10 -5
22 -10 25 -6 3 -10 15 -10 25 0 11 -9 35 -20 55 -11 20 -20 44 -20 55 0 10 -4
22 -10 25 -5 3 -10 21 -10 40 0 19 -4 37 -10 40 -5 3 -10 17 -10 30 0 13 -5
27 -10 30 -6 3 -10 21 -10 40 0 19 -4 37 -10 40 -5 3 -10 17 -10 30 0 13 -4
27 -10 30 -5 3 -10 26 -10 50 0 24 -4 47 -10 50 -5 3 -10 21 -10 40 0 19 -4
37 -10 40 -5 3 -10 30 -10 60 0 30 -4 57 -10 60 -5 3 -10 30 -10 60 0 30 -4
57 -10 60 -5 3 -10 39 -10 80 0 41 -5 77 -10 80 -6 4 -10 55 -10 120 0 65 -4
116 -10 120 -14 8 -14 442 0 450 6 4 10 54 10 119 0 61 4 116 9 122 5 5 12 41
15 79 11 136 18 190 27 200 5 5 9 33 9 61 0 29 4 56 10 59 5 3 10 21 10 40 0
19 5 37 10 40 6 3 10 26 10 50 0 24 5 47 10 50 6 3 10 17 10 30 0 13 4 27 10
30 5 3 10 21 10 40 0 19 4 37 10 40 5 3 10 17 10 30 0 13 4 27 10 30 5 3 10
21 10 40 0 19 4 37 10 40 5 3 10 15 10 25 0 11 9 35 20 55 11 20 20 44 20 55
0 10 4 22 10 25 5 3 10 15 10 25 0 11 9 35 20 55 11 20 20 42 20 49 0 8 14 40
30 71 17 31 30 62 30 69 0 15 144 302 162 324 8 9 27 42 42 73 14 32 33 62 41
69 8 7 15 18 15 25 0 6 9 20 20 30 11 10 20 23 20 30 0 7 9 20 20 30 11 10 20
23 20 30 0 7 9 20 20 30 11 10 20 23 20 30 0 7 9 20 20 30 11 10 20 23 20 30
0 6 13 24 30 40 16 16 30 34 30 40 0 6 14 24 30 40 17 16 30 34 30 40 0 6 23
33 50 60 28 27 50 54 50 60 0 6 36 46 80 90 44 44 80 84 80 90 0 13 152 165
165 165 6 0 46 36 90 80 44 44 84 80 90 80 6 0 33 23 60 50 27 28 54 50 60 50
6 0 24 14 40 30 16 17 34 30 40 30 6 0 24 14 40 30 16 17 34 30 40 30 7 0 20
9 30 20 10 11 23 20 30 20 7 0 20 9 30 20 10 11 23 20 30 20 7 0 20 9 30 20
10 11 23 20 30 20 7 0 20 9 30 20 10 11 24 20 30 20 7 0 18 7 25 15 7 8 37 27
69 41 31 15 64 34 73 42 22 18 309 162 324 162 7 0 38 14 69 30 31 17 63 30
71 30 7 0 29 9 49 20 20 11 44 20 55 20 10 0 22 5 25 10 3 6 15 10 25 10 11 0
35 9 55 20 20 11 44 20 55 20 10 0 22 5 25 10 3 6 21 10 40 10 19 0 37 5 40
10 3 6 17 10 30 10 13 0 27 5 30 10 3 6 21 10 40 10 19 0 37 5 40 10 3 6 17
10 30 10 13 0 27 5 30 10 3 6 26 10 50 10 24 0 47 5 50 10 3 6 21 10 40 10 19
0 37 5 40 10 3 6 30 10 60 10 30 0 57 5 60 10 3 6 33 10 66 10 33 0 59 4 59
10 0 6 31 10 74 10 41 0 78 5 81 10 4 6 57 10 126 10 73 0 119 4 119 10 0 6
80 10 220 10 140 0 220 -4 220 -10z"/>
<path d="M2208 7611 c-244 -49 -382 -196 -444 -476 -29 -132 -39 -220 -108
-930 -8 -82 -22 -220 -31 -305 -9 -85 -20 -204 -25 -265 -5 -60 -14 -148 -19
-195 -21 -173 -32 -278 -42 -385 -5 -60 -16 -175 -24 -255 -16 -155 -35 -355
-62 -620 -9 -91 -17 -185 -17 -210 l-1 -45 425 0 424 0 8 43 c4 23 14 183 23
355 9 172 23 431 31 577 8 146 18 362 24 480 5 118 14 274 19 345 11 131 22
335 26 455 1 36 8 162 15 280 7 118 14 238 14 265 1 62 18 74 28 20 4 -22 17
-92 29 -155 12 -63 27 -151 34 -195 7 -44 20 -118 29 -165 8 -47 29 -161 46
-255 17 -93 35 -192 41 -220 5 -27 16 -88 23 -135 8 -47 26 -148 40 -225 15
-77 33 -178 42 -225 8 -47 19 -105 24 -130 5 -25 12 -65 15 -90 3 -25 10 -65
16 -90 19 -89 50 -257 64 -345 32 -206 55 -295 97 -380 88 -179 222 -275 384
-275 198 0 352 130 433 368 11 34 21 71 21 82 0 11 5 39 10 62 6 24 24 117 40
208 17 91 35 188 40 215 23 121 40 215 50 275 5 36 17 103 26 150 21 112 41
230 54 310 6 36 13 72 16 81 2 9 11 56 20 105 18 105 27 160 49 274 9 47 23
122 31 168 7 45 21 121 30 170 8 48 21 121 29 162 66 375 69 381 79 197 4 -67
9 -149 11 -182 8 -116 28 -491 31 -575 1 -47 7 -164 13 -260 20 -339 42 -728
56 -1005 31 -623 36 -701 45 -722 l10 -23 415 0 c381 0 416 1 422 17 7 17 -6
189 -32 443 -8 80 -22 215 -30 300 -21 228 -34 351 -40 390 -7 46 -27 254 -30
305 -2 40 -12 132 -41 405 -8 80 -21 213 -29 295 -8 83 -21 218 -30 300 -9 83
-22 220 -30 305 -43 476 -96 661 -225 790 -108 108 -230 149 -468 157 -146 5
-228 -10 -339 -64 -168 -81 -304 -302 -343 -558 -6 -39 -18 -110 -26 -160 -8
-49 -21 -137 -29 -195 -8 -58 -22 -148 -30 -200 -8 -52 -22 -142 -30 -200 -8
-58 -21 -148 -30 -200 -8 -52 -22 -142 -30 -200 -16 -113 -24 -168 -50 -325
-9 -55 -23 -145 -30 -200 -7 -55 -14 -101 -14 -102 -1 -2 -8 -3 -16 -3 -8 0
-15 1 -15 3 0 1 -5 29 -10 62 -10 58 -26 160 -55 365 -8 52 -19 122 -24 155
-6 33 -17 105 -25 160 -8 55 -22 147 -31 205 -21 135 -43 280 -60 400 -8 52
-21 140 -30 195 -8 55 -20 134 -26 175 -16 120 -57 258 -106 359 -84 171 -215
276 -392 315 -96 21 -270 20 -383 -3z"/>
<path d="M5675 7561 c-9 -16 -6 -2692 4 -2752 28 -165 72 -300 137 -416 46
-83 167 -210 253 -267 74 -50 223 -118 291 -134 25 -6 73 -18 107 -26 147 -37
321 -47 758 -44 l420 3 0 435 0 435 -420 6 c-401 5 -423 6 -474 27 -80 32
-137 92 -161 170 -19 62 -20 100 -20 1302 0 681 -3 1245 -6 1254 -5 14 -54 16
-444 16 -258 0 -441 -4 -445 -9z"/>
<path d="M1430 3731 c-15 -29 -14 -513 2 -529 17 -17 6209 -17 6226 0 9 9 12
81 12 264 0 216 -2 255 -16 268 -14 14 -316 16 -3114 16 -3053 0 -3099 0
-3110 -19z"/>
<path d="M2220 3011 c-131 -21 -220 -116 -220 -237 0 -29 5 -56 10 -59 6 -3
10 -13 10 -22 0 -49 95 -121 188 -143 55 -13 132 -4 210 23 29 10 32 15 32 54
0 43 -7 52 -25 34 -17 -17 -125 -40 -158 -35 -62 11 -103 35 -130 77 -34 52
-34 97 -2 152 49 84 157 106 270 56 l46 -20 -3 46 c-3 43 -6 47 -38 58 -49 17
-136 24 -190 16z"/>
<path d="M7849 3010 c-111 -19 -181 -80 -208 -182 -18 -63 1 -135 47 -189 42
-49 89 -73 169 -89 66 -13 130 -5 205 27 44 18 51 41 46 143 l-3 65 -84 0
c-89 1 -98 -5 -87 -48 4 -17 12 -23 33 -22 24 0 28 -4 31 -31 4 -42 -17 -56
-81 -56 -124 0 -202 102 -157 207 25 59 97 105 163 105 32 -1 126 -21 160 -35
14 -6 17 -1 17 34 0 37 -3 42 -33 55 -44 18 -160 27 -218 16z"/>
<path d="M920 2782 l0 -229 53 1 52 1 3 130 c1 72 5 137 8 145 5 15 37 -16
101 -97 14 -18 31 -33 37 -33 6 0 27 19 46 42 69 84 77 91 88 84 8 -5 12 -50
12 -140 l0 -133 55 0 55 0 -2 226 -3 226 -47 3 -46 3 -73 -83 c-40 -46 -76
-84 -80 -86 -4 -2 -22 14 -41 34 -119 136 -117 134 -169 134 l-49 0 0 -228z"/>
<path d="M1645 2968 c-9 -24 -23 -56 -30 -73 -7 -16 -20 -50 -30 -75 -16 -43
-21 -56 -58 -140 -31 -72 -47 -113 -47 -121 0 -5 24 -9 54 -9 57 0 56 0 79 72
5 14 23 17 107 20 107 3 140 -3 140 -25 0 -7 6 -25 13 -40 11 -24 17 -27 65
-27 28 0 52 4 52 10 0 5 -11 33 -24 62 -13 29 -33 74 -45 101 -11 26 -31 68
-42 95 -12 26 -32 72 -45 102 -39 88 -35 85 -106 88 l-65 3 -18 -43z m116
-125 c11 -27 25 -56 30 -65 5 -10 9 -29 9 -43 0 -24 -2 -25 -64 -25 -36 0 -68
5 -71 11 -10 15 46 169 62 169 7 0 22 -21 34 -47z"/>
<path d="M2540 2781 l0 -228 55 0 55 0 0 92 c0 52 4 95 10 97 5 2 61 2 125 0
l115 -3 0 -95 0 -94 55 0 55 0 0 231 0 230 -52 -3 -53 -3 -3 -92 -3 -93 -42 0
c-23 -1 -78 -1 -122 -2 l-80 -1 -3 96 -3 97 -54 0 -55 0 0 -229z"/>
<path d="M3114 2997 c-2 -7 -3 -109 -2 -227 l3 -215 48 -2 47 -2 0 230 0 229
-45 0 c-28 0 -48 -5 -51 -13z"/>
<path d="M3320 2781 l0 -228 50 -2 49 -1 3 142 c2 93 7 143 14 145 6 2 56 -49
111 -114 154 -181 145 -173 198 -171 l45 1 0 229 0 229 -52 -3 -53 -3 -3 -137
c-1 -76 -5 -138 -9 -138 -3 0 -24 21 -47 47 -22 27 -66 75 -96 108 -30 34 -67
75 -83 93 -24 28 -33 32 -77 32 l-50 0 0 -229z"/>
<path d="M3886 3002 c-6 -11 -7 -419 0 -436 4 -12 39 -15 175 -16 l169 -1 0
38 0 38 -107 -3 c-120 -4 -133 2 -133 66 0 66 9 72 119 72 97 0 99 0 103 25 3
13 3 27 0 30 -3 3 -49 5 -102 5 -107 0 -120 6 -120 56 0 63 2 64 120 64 104 0
108 1 112 23 9 46 5 47 -167 47 -90 0 -166 -4 -169 -8z"/>
<path d="M4490 2781 l0 -230 173 2 172 2 3 33 3 32 -119 0 c-100 0 -121 3
-126 16 -3 9 -6 96 -6 193 l0 178 -50 2 -50 1 0 -229z"/>
<path d="M4905 2998 c-3 -8 -4 -110 -3 -228 l3 -215 165 0 165 0 3 32 3 32
-113 3 -113 3 0 65 0 65 103 3 102 3 0 29 0 29 -102 3 -103 3 -3 53 c-2 36 1
54 10 57 7 2 58 6 113 7 l100 3 0 30 0 30 -163 3 c-126 2 -164 0 -167 -10z"/>
<path d="M5445 2974 c-8 -20 -15 -38 -15 -40 0 -2 -8 -23 -19 -47 -52 -119
-131 -317 -131 -329 0 -5 24 -8 52 -6 51 3 54 5 72 43 10 22 22 42 26 45 4 3
54 3 110 0 l102 -5 22 -40 c21 -38 26 -40 74 -43 31 -2 52 1 52 7 0 6 -12 36
-26 68 -15 32 -33 74 -41 93 -8 19 -25 58 -38 85 -12 28 -32 73 -44 100 -43
100 -42 100 -115 103 l-65 3 -16 -37z m101 -91 c7 -22 17 -47 38 -95 9 -20 16
-45 16 -57 0 -19 -6 -21 -70 -21 -84 0 -84 0 -39 113 31 77 45 92 55 60z"/>
<path d="M5850 2779 l0 -230 53 3 52 3 3 93 3 92 27 0 c15 0 37 -7 49 -15 21
-15 73 -108 73 -130 0 -7 8 -19 18 -28 23 -21 112 -24 112 -4 0 19 -67 152
-84 166 -23 20 -20 39 14 73 26 25 30 37 30 81 -1 99 -51 127 -230 127 l-120
0 0 -231z m224 145 c17 -16 21 -61 8 -80 -13 -19 -50 -34 -86 -34 l-36 0 0 65
0 65 49 0 c32 0 55 -6 65 -16z"/>
<path d="M6310 2779 l0 -230 48 3 47 3 5 140 c3 92 9 140 16 140 6 0 24 -16
40 -35 15 -19 44 -53 64 -75 19 -23 61 -71 93 -108 58 -66 59 -67 108 -65 l49
1 0 228 0 229 -55 0 -55 0 0 -134 c0 -74 -4 -137 -9 -141 -6 -3 -65 58 -133
135 l-122 140 -48 0 -48 0 0 -231z"/>
<path d="M6882 2783 l3 -228 48 -3 47 -3 0 230 0 231 -50 0 -50 0 2 -227z"/>
<path d="M7090 2779 l0 -230 48 3 47 3 3 143 c2 108 6 142 16 142 7 0 53 -48
103 -107 156 -185 153 -182 207 -181 l46 1 0 228 0 229 -55 0 -55 0 0 -134 c0
-74 -4 -137 -9 -140 -4 -3 -63 57 -130 134 l-121 140 -50 0 -50 0 0 -231z"/>
<path d="M6401 2290 c-57 -4 -62 -7 -47 -19 15 -13 17 -39 15 -275 l-2 -261
55 -3 55 -3 -1 280 c-1 154 -4 281 -6 283 -3 2 -34 1 -69 -2z"/>
<path d="M1558 2261 c-86 -55 -132 -147 -131 -266 0 -138 67 -238 180 -271 55
-16 86 -12 42 5 -56 21 -85 89 -95 226 -10 130 16 255 64 308 24 25 24 27 6
27 -11 0 -41 -13 -66 -29z"/>
<path d="M1780 2241 c35 -35 53 -63 62 -95 7 -25 16 -46 20 -46 4 0 8 41 8 90
0 88 -5 101 -27 79 -12 -12 -80 -2 -89 12 -3 5 -9 9 -14 9 -5 0 13 -22 40 -49z"/>
<path d="M4970 2281 c0 -5 5 -13 10 -16 6 -4 11 -63 12 -138 l2 -132 6 124 c6
147 12 146 65 -10 20 -57 40 -113 45 -124 5 -11 19 -49 31 -85 44 -132 61
-171 72 -167 12 4 56 113 64 160 3 15 1 27 -5 27 -5 0 -14 12 -20 28 -6 15
-13 36 -18 47 -4 11 -28 81 -53 155 l-46 135 -83 3 c-49 2 -82 -1 -82 -7z"/>
<path d="M5395 2258 c-12 -29 -12 -35 1 -44 11 -9 14 -53 14 -248 l0 -237 61
3 60 3 -1 262 c0 170 3 264 10 268 26 16 4 25 -60 25 -70 0 -71 0 -85 -32z"/>
<path d="M6050 2280 c0 -5 5 -10 10 -10 6 0 10 5 10 10 0 6 -4 10 -10 10 -5 0
-10 -4 -10 -10z"/>
<path d="M6080 2281 c0 -6 5 -13 10 -16 6 -4 10 -105 10 -271 l0 -264 55 0 55
0 0 280 0 280 -65 0 c-36 0 -65 -4 -65 -9z"/>
<path d="M4100 2258 c-23 -25 -24 -29 -9 -61 17 -37 54 -51 85 -31 32 22 40
58 20 89 -21 32 -67 34 -96 3z"/>
<path d="M5367 2187 c-11 -29 -9 -43 4 -30 6 6 9 19 7 29 -3 18 -4 18 -11 1z"/>
<path d="M5345 2127 c-4 -10 -5 -21 -1 -24 10 -10 18 4 13 24 -4 17 -4 17 -12
0z"/>
<path d="M2617 2083 c-3 -5 -8 -23 -12 -41 -12 -58 35 -90 83 -56 27 19 29 64
4 87 -19 17 -67 23 -75 10z"/>
<path d="M2860 2083 c-76 -10 -70 6 -70 -183 l0 -170 55 0 55 0 0 123 c1 87 5
129 15 147 18 32 18 40 0 40 -8 0 -15 9 -15 19 0 24 -7 28 -40 24z"/>
<path d="M3949 2088 c-1 -2 -3 -14 -4 -28 -3 -28 11 -50 31 -50 14 0 44 27 44
40 0 16 -31 40 -51 40 -10 0 -20 -1 -20 -2z"/>
<path d="M4160 2083 c-70 -10 -65 6 -65 -183 l0 -170 53 0 52 0 0 174 c0 96
-3 176 -7 178 -5 2 -19 3 -33 1z"/>
<path d="M2160 2077 c0 -3 6 -20 14 -38 10 -24 12 -47 6 -79 -4 -25 -5 -52 0
-60 9 -18 -2 -119 -14 -139 -6 -9 -5 -12 2 -7 6 3 27 -5 48 -19 37 -25 72 -26
102 -2 11 9 10 12 -7 19 -23 8 -27 42 -22 174 3 61 -12 108 -41 131 -13 11
-88 27 -88 20z"/>
<path d="M2445 2072 c-7 -4 -11 -70 -11 -174 l1 -168 51 0 52 0 4 133 c2 78 9
141 16 155 11 18 10 22 -3 22 -8 0 -15 9 -15 20 0 17 -7 20 -42 20 -24 0 -48
-4 -53 -8z"/>
<path d="M2997 2073 c-4 -3 5 -17 19 -29 25 -24 25 -26 23 -166 l-1 -143 51
-3 51 -3 0 145 c0 141 -1 145 -26 175 -21 26 -33 31 -68 31 -24 0 -46 -3 -49
-7z"/>
<path d="M3455 2064 c4 -11 9 -46 11 -79 l3 -60 50 -3 c64 -4 74 13 42 72 -23
44 -51 68 -90 81 -21 6 -23 5 -16 -11z"/>
<path d="M3743 2072 c-32 -5 -83 -67 -83 -100 0 -16 12 -47 27 -70 23 -36 33
-42 61 -42 27 0 32 3 24 13 -17 20 -24 108 -13 157 5 24 9 45 8 45 -1 0 -12
-1 -24 -3z"/>
<path d="M3845 1988 c0 -51 -4 -102 -9 -112 -8 -17 -6 -18 20 -12 70 16 103
95 69 164 -12 23 -55 52 -79 52 -1 0 -2 -42 -1 -92z"/>
<path d="M4520 2066 c0 -8 5 -18 10 -21 6 -3 10 -33 10 -66 l0 -59 56 0 56 0
-7 38 c-7 40 -44 85 -87 108 -34 18 -38 17 -38 0z"/>
<path d="M5325 2067 c-4 -10 -5 -21 -1 -24 10 -10 18 4 13 24 -4 17 -4 17 -12
0z"/>
<path d="M5864 2058 c3 -13 6 -49 6 -80 l0 -58 55 0 c56 0 60 3 55 45 -3 29
-46 82 -80 100 -39 20 -43 19 -36 -7z"/>
<path d="M6695 2066 c-16 -8 -42 -26 -57 -42 -93 -99 -44 -271 84 -296 l26 -5
-19 31 c-16 26 -19 51 -19 146 1 81 5 122 15 140 25 44 20 48 -30 26z"/>
<path d="M6820 2075 c0 -3 5 -16 11 -28 15 -27 12 -276 -3 -294 -15 -19 -4
-27 28 -19 59 15 114 100 114 176 -1 41 -35 105 -71 133 -35 25 -79 43 -79 32z"/>
<path d="M7074 2071 c-2 -2 -4 -80 -4 -173 l0 -168 55 0 55 0 0 119 c0 66 5
132 11 148 7 19 7 29 0 31 -6 2 -11 15 -11 28 0 22 -3 24 -51 22 -27 -1 -52
-4 -55 -7z"/>
<path d="M7266 2071 c-3 -5 3 -11 13 -14 31 -8 43 -76 39 -209 l-3 -118 58 0
57 0 0 119 c0 179 -25 231 -111 231 -26 0 -50 -4 -53 -9z"/>
<path d="M2012 2050 c-43 -41 -20 -109 33 -96 32 8 44 50 21 75 -9 10 -16 23
-16 29 0 18 -13 15 -38 -8z"/>
<path d="M2955 2060 c-3 -5 -1 -10 4 -10 6 0 11 5 11 10 0 6 -2 10 -4 10 -3 0
-8 -4 -11 -10z"/>
<path d="M3311 2041 c-40 -37 -61 -88 -61 -147 0 -84 47 -146 132 -173 50 -16
68 -4 30 19 -17 11 -35 33 -41 52 -12 37 -10 233 3 261 13 29 -28 21 -63 -12z"/>
<path d="M4387 2049 c-61 -46 -88 -169 -52 -239 21 -40 72 -77 125 -89 54 -12
74 -3 32 15 -17 7 -36 23 -43 36 -14 26 -19 226 -6 271 6 22 4 27 -10 27 -10
0 -31 -10 -46 -21z"/>
<path d="M5710 2032 c-100 -100 -63 -263 70 -307 60 -20 84 -11 41 16 -18 11
-36 31 -41 45 -13 33 -13 225 0 258 8 23 7 26 -11 26 -12 0 -38 -17 -59 -38z"/>
<path d="M7215 2050 c-3 -5 -1 -10 4 -10 6 0 11 5 11 10 0 6 -2 10 -4 10 -3 0
-8 -4 -11 -10z"/>
<path d="M5308 2024 c-5 -4 -8 -16 -8 -28 0 -14 3 -17 11 -9 6 6 9 19 7 28 -1
9 -6 13 -10 9z"/>
<path d="M4992 1884 c-1 -70 -6 -106 -17 -120 -22 -29 -18 -34 20 -34 37 0 43
8 23 28 -8 8 -15 55 -19 120 l-5 107 -2 -101z"/>
<path d="M5280 1945 c0 -8 5 -15 10 -15 6 0 10 7 10 15 0 8 -4 15 -10 15 -5 0
-10 -7 -10 -15z"/>
<path d="M1858 1904 c-5 -4 -8 -16 -8 -27 0 -29 -45 -102 -77 -126 -21 -15
-24 -20 -11 -21 9 0 20 5 23 10 8 14 48 13 63 -2 19 -19 23 -4 20 87 -2 48 -6
83 -10 79z"/>
<path d="M2015 1901 c-53 -22 -73 -83 -45 -136 16 -30 105 -64 123 -46 7 7 6
16 -7 30 -26 28 -32 91 -12 129 l17 32 -28 -1 c-16 0 -37 -4 -48 -8z"/>
<path d="M3663 1829 c-18 -18 -16 -68 2 -103 14 -27 14 -31 -5 -51 -13 -14
-20 -35 -20 -62 0 -34 5 -45 29 -62 49 -35 65 -27 31 16 -23 29 -26 80 -6 106
19 24 230 26 240 1 9 -25 7 -72 -4 -79 -5 -3 -10 -11 -10 -17 0 -6 9 -3 20 7
22 20 35 89 26 140 -11 56 -41 69 -165 71 -58 1 -109 3 -113 3 -4 1 -8 10 -10
22 -2 16 -5 18 -15 8z"/>
<path d="M3560 1815 c0 -8 2 -15 4 -15 2 0 6 7 10 15 3 8 1 15 -4 15 -6 0 -10
-7 -10 -15z"/>
<path d="M5958 1799 c-9 -16 -14 -29 -9 -29 9 0 36 48 30 54 -2 3 -12 -9 -21
-25z"/>
<path d="M4625 1800 c-3 -5 -1 -10 4 -10 6 0 11 5 11 10 0 6 -2 10 -4 10 -3 0
-8 -4 -11 -10z"/>
<path d="M3531 1767 c-13 -21 -12 -21 5 -5 10 10 16 20 13 22 -3 3 -11 -5 -18
-17z"/>
<path d="M6775 1720 c-3 -5 1 -10 9 -10 9 0 16 5 16 10 0 6 -4 10 -9 10 -6 0
-13 -4 -16 -10z"/>
<path d="M3754 1519 c-3 -5 11 -9 30 -9 20 0 36 3 36 8 0 10 -59 11 -66 1z"/>
<path d="M2620 1320 c-23 -7 -23 -8 -4 -9 12 -1 24 -7 27 -14 3 -7 5 -98 4
-203 0 -170 2 -194 20 -235 16 -35 33 -54 67 -74 51 -30 151 -45 182 -27 16 9
13 12 -25 18 -57 9 -99 47 -111 99 -14 58 -13 435 1 435 5 0 7 5 4 10 -7 12
-129 12 -165 0z"/>
<path d="M2805 1320 c-3 -5 1 -10 10 -10 9 0 13 5 10 10 -3 6 -8 10 -10 10 -2
0 -7 -4 -10 -10z"/>
<path d="M3010 1320 c-23 -7 -23 -8 -4 -9 12 -1 26 -7 32 -13 12 -16 19 -394
7 -423 -4 -11 -19 -35 -32 -52 -13 -18 -20 -33 -14 -33 13 0 56 58 66 90 4 14
11 115 14 225 l6 199 25 7 c30 8 28 10 -30 14 -25 2 -56 0 -70 -5z"/>
<path d="M3731 1301 c-23 -23 -26 -43 -11 -71 18 -34 46 -42 79 -25 40 20 48
50 24 84 -26 33 -65 39 -92 12z"/>
<path d="M5460 1300 c-27 -27 -25 -56 5 -85 29 -30 45 -31 76 -7 28 24 31 79
4 98 -27 20 -62 17 -85 -6z"/>
<path d="M5789 1228 c-7 -24 -31 -60 -51 -80 l-38 -38 0 -143 c0 -157 5 -174
61 -203 40 -20 119 2 119 34 0 13 -3 12 -19 -2 -19 -17 -20 -17 -35 6 -13 20
-16 60 -15 242 1 119 -1 219 -3 222 -3 2 -11 -15 -19 -38z"/>
<path d="M4810 1120 c-8 -5 -30 -10 -47 -10 l-33 0 0 -169 0 -169 28 -3 c15
-2 39 -3 54 -1 l26 3 4 152 c3 156 1 207 -11 207 -3 0 -13 -5 -21 -10z"/>
<path d="M4912 1121 c-9 -5 -12 -23 -10 -51 4 -52 24 -69 65 -54 23 8 29 16
31 49 3 29 -1 43 -14 52 -20 15 -53 17 -72 4z"/>
<path d="M5530 1120 c-8 -5 -30 -10 -47 -10 l-33 0 0 -170 c0 -129 3 -170 13
-171 6 -1 30 -1 52 -2 l40 0 3 182 c1 99 -1 181 -5 181 -5 0 -15 -5 -23 -10z"/>
<path d="M3247 1113 c-34 -4 -38 -7 -33 -26 3 -12 6 -88 6 -169 l0 -148 50 0
50 0 0 110 c0 76 5 122 15 147 8 19 15 37 15 39 0 2 -7 4 -15 4 -9 0 -15 9
-15 25 0 18 -5 25 -17 23 -10 -1 -35 -3 -56 -5z"/>
<path d="M3417 1114 c-3 -4 5 -15 18 -26 24 -18 25 -23 27 -170 l3 -151 35 0
c79 1 73 -14 68 154 -3 151 -3 151 -31 175 -20 17 -40 24 -71 24 -23 0 -46 -3
-49 -6z"/>
<path d="M3757 1113 l-37 -4 2 -171 3 -171 45 -1 45 -1 3 178 c2 139 0 177
-10 175 -7 -1 -30 -3 -51 -5z"/>
<path d="M5258 1113 c-34 -5 -35 -13 -3 -43 14 -13 25 -29 25 -37 0 -7 5 -13
10 -13 6 0 10 23 10 50 0 28 -3 49 -7 49 -5 -1 -20 -4 -35 -6z"/>
<path d="M3949 1043 c54 -127 63 -148 96 -220 19 -40 37 -73 40 -73 5 0 16 22
65 138 6 12 15 33 22 47 6 14 9 28 6 31 -4 3 -12 -7 -20 -22 -13 -28 -38 -44
-38 -26 0 6 -15 43 -34 84 -18 40 -36 81 -39 91 -5 14 -18 17 -66 17 l-60 0
28 -67z"/>
<path d="M4197 1074 c3 -21 0 -45 -7 -60 -7 -13 -11 -27 -8 -30 4 -3 14 12 24
33 10 21 26 50 36 66 l19 27 -35 0 c-34 0 -35 0 -29 -36z"/>
<path d="M4362 1084 c-47 -38 -62 -73 -62 -151 0 -56 4 -75 24 -104 27 -39 76
-67 134 -76 l37 -6 -40 36 -40 35 0 128 c0 71 4 137 9 147 13 27 -23 22 -62
-9z"/>
<path d="M4505 1088 c5 -13 9 -45 10 -73 l1 -50 43 -3 c60 -4 69 1 63 37 -5
38 -73 111 -103 111 -18 0 -20 -4 -14 -22z"/>
<path d="M5955 1090 c10 -32 153 -361 159 -367 3 -4 6 3 6 14 0 19 9 45 47
133 8 19 19 44 23 55 19 47 75 157 82 161 18 11 6 24 -23 24 -28 0 -31 -2 -25
-25 7 -27 -44 -167 -63 -173 -6 -2 -15 7 -20 20 -5 13 -20 47 -34 75 -13 28
-27 63 -31 77 -6 24 -10 26 -67 26 -56 0 -60 -1 -54 -20z"/>
<path d="M5080 1068 c-52 -85 3 -178 105 -178 76 0 112 -40 84 -92 -8 -16 -8
-19 2 -16 25 8 50 55 51 95 1 84 -14 98 -126 119 -86 17 -105 32 -89 74 15 40
-2 38 -27 -2z"/>
<path d="M5060 821 c0 -57 11 -84 25 -61 3 5 20 10 37 10 l30 0 -30 34 c-17
19 -33 44 -37 55 -12 40 -25 21 -25 -38z"/>
<path d="M4607 853 c-4 -3 -7 -11 -7 -17 0 -6 5 -5 12 2 6 6 9 14 7 17 -3 3
-9 2 -12 -2z"/>
<path d="M2955 780 c-3 -5 1 -10 9 -10 9 0 16 5 16 10 0 6 -4 10 -9 10 -6 0
-13 -4 -16 -10z"/>
<path d="M5195 760 c-3 -5 -1 -10 4 -10 6 0 11 5 11 10 0 6 -2 10 -4 10 -3 0
-8 -4 -11 -10z"/>
<path d="M6086 672 c-4 -13 -5 -26 -2 -29 10 -11 18 4 14 29 l-4 23 -8 -23z"/>
<path d="M5970 650 c-11 -11 -20 -27 -20 -35 0 -23 37 -55 63 -55 12 0 33 7
45 16 25 17 31 49 7 40 -9 -3 -15 0 -15 9 0 18 -27 45 -46 45 -8 0 -23 -9 -34
-20z"/>
</g>
</svg>
