<?xml version="1.0" standalone="no"?>
<!DOCTYPE svg PUBLIC "-//W3C//DTD SVG 20010904//EN"
 "http://www.w3.org/TR/2001/REC-SVG-20010904/DTD/svg10.dtd">
<svg version="1.0" xmlns="http://www.w3.org/2000/svg"
 width="176.000000pt" height="176.000000pt" viewBox="0 0 176.000000 176.000000"
 preserveAspectRatio="xMidYMid meet">

<g transform="translate(0.000000,176.000000) scale(0.100000,-0.100000)"
fill="#000000" stroke="none">
<path d="M297 1740 c42 -19 83 -69 83 -101 0 -11 -12 -18 -39 -23 -24 -4 -68
-27 -117 -62 -53 -38 -92 -58 -118 -62 -35 -4 -37 -7 -22 -18 10 -7 36 -16 58
-19 24 -4 36 -10 28 -15 -8 -5 0 -17 26 -39 30 -24 34 -31 19 -31 -18 0 -18 0
0 -13 16 -13 15 -14 -21 -20 -37 -6 -77 -38 -125 -101 -13 -18 -13 -19 8 -8
36 20 74 14 125 -19 26 -17 48 -33 48 -36 0 -3 -27 -3 -60 0 -33 3 -62 2 -65
-3 -4 -7 18 -28 80 -74 l20 -15 -20 -1 c-30 -2 53 -39 88 -40 27 0 27 0 12
-30 -19 -36 -21 -60 -3 -42 23 23 26 12 12 -35 -8 -27 -24 -56 -35 -65 -21
-18 -21 -18 15 -18 26 0 36 -4 36 -16 0 -14 2 -14 22 0 12 9 37 16 55 16 31 0
33 -2 33 -34 l0 -34 31 29 31 29 -31 31 c-17 17 -31 36 -31 43 0 25 13 25 32
1 11 -14 28 -30 38 -35 17 -9 18 -7 9 22 -5 18 -15 36 -23 40 -9 5 -13 15 -9
24 5 13 8 13 15 2 6 -9 7 -5 3 11 -4 13 -3 33 3 45 35 76 59 119 75 133 16 15
17 15 17 -2 0 -11 5 -15 16 -11 9 3 22 6 30 6 9 0 12 5 9 10 -3 6 -1 10 5 10
6 0 20 16 32 36 21 35 22 36 30 15 l8 -22 22 25 c13 14 35 28 51 32 24 5 27 3
27 -17 -1 -13 -5 -43 -9 -67 -6 -31 -5 -40 3 -33 6 4 35 16 64 26 29 9 57 25
63 37 6 11 13 17 16 15 2 -3 -3 -19 -12 -36 -20 -40 -6 -40 50 -1 24 17 58 33
75 36 17 4 33 11 36 16 8 12 44 -66 44 -94 0 -16 -5 -19 -22 -14 -13 3 -36 6
-53 6 -23 0 -27 3 -15 10 22 14 8 12 -36 -5 -78 -32 -85 -37 -68 -50 13 -9 24
-8 52 7 58 29 132 23 132 -12 0 -13 6 -17 19 -13 27 7 36 -29 16 -66 -13 -27
-13 -30 0 -25 18 7 21 -27 5 -57 -6 -10 -8 -19 -5 -19 3 0 14 19 25 43 10 23
19 34 19 25 1 -10 6 -18 12 -18 8 0 10 -12 6 -35 -3 -19 -2 -35 2 -35 12 0 38
33 46 59 14 44 47 93 58 82 12 -12 -17 -90 -54 -141 -18 -24 -25 -42 -18 -46
6 -3 8 -12 5 -20 -9 -24 10 -15 24 12 l14 25 9 -23 c8 -22 9 -21 22 16 8 22
23 53 35 68 13 18 22 46 23 74 2 43 3 44 37 44 19 1 48 7 64 13 l30 13 -32 13
c-36 15 -63 41 -42 41 21 0 77 47 83 70 4 17 0 20 -23 20 -15 0 -33 7 -40 15
-10 12 -2 24 43 70 l56 55 -37 0 c-46 0 -33 12 38 36 l55 18 -32 7 c-18 3 -54
24 -80 45 -26 22 -54 42 -62 45 -10 4 5 12 41 23 66 19 84 36 38 36 -17 0 -42
7 -55 16 -14 9 -42 22 -63 30 -22 7 -35 18 -33 26 15 54 20 92 15 113 -5 20
-12 25 -40 25 -19 0 -34 -5 -34 -11 0 -8 -4 -8 -14 0 -10 8 -160 11 -542 11
-527 -1 -529 -1 -487 -20z m135 -769 c-3 -29 -7 -39 -13 -30 -10 17 -12 83 -2
93 13 12 20 -18 15 -63z m837 -63 c-5 -10 -12 -18 -15 -18 -2 0 -1 8 4 18 5 9
7 24 5 32 -4 13 -3 13 6 1 6 -10 6 -21 0 -33z m-769 13 c13 -25 13 -34 0 -26
-16 10 -32 45 -21 45 6 0 15 -9 21 -19z"/>
<path d="M688 1142 c10 -7 4 -11 -22 -16 -73 -14 -127 -94 -111 -167 10 -46
20 -41 16 7 -4 58 13 99 54 124 52 32 117 23 157 -23 15 -17 18 -18 14 -4 -4
12 0 17 17 17 15 1 6 9 -33 29 -56 29 -117 51 -92 33z"/>
<path d="M1032 1068 c-17 -17 -15 -75 3 -82 17 -6 45 2 45 14 0 5 -6 10 -12
13 -10 3 -10 9 -1 24 9 15 9 23 0 32 -14 14 -20 14 -35 -1z"/>
<path d="M688 1045 c-9 -19 -8 -29 6 -50 19 -29 29 -31 46 -10 9 11 9 19 2 28
-7 8 -7 18 -2 27 11 18 4 30 -21 30 -11 0 -24 -11 -31 -25z"/>
<path d="M580 900 c0 -5 5 -10 11 -10 5 0 7 5 4 10 -3 6 -8 10 -11 10 -2 0 -4
-4 -4 -10z"/>
<path d="M519 831 c13 -8 12 -24 -3 -113 -11 -63 -26 -114 -39 -132 l-20 -30
30 22 c17 12 33 22 36 22 2 0 1 -19 -4 -42 -18 -92 -3 -305 31 -465 11 -49 14
-53 48 -62 88 -24 428 -39 517 -23 l40 7 22 105 c31 140 63 361 63 433 0 58 5
66 30 45 12 -11 12 -10 2 3 -13 18 -42 156 -43 209 l-1 35 -14 -41 c-28 -77
-174 -201 -277 -234 -48 -15 -95 -7 -172 32 -106 52 -167 106 -200 175 -17 34
-37 62 -45 62 -13 1 -13 -1 -1 -8z m221 -253 c0 -4 5 -7 12 -5 7 1 17 -8 23
-21 6 -15 16 -21 27 -18 10 2 21 0 24 -5 3 -5 13 -9 23 -9 10 0 28 -9 41 -20
13 -11 24 -20 26 -20 1 0 0 9 -3 20 -3 11 -12 20 -21 20 -8 0 -13 3 -9 6 11
11 46 -7 45 -24 0 -9 3 -33 7 -52 6 -31 3 -40 -30 -75 -20 -22 -38 -39 -41
-38 -32 17 -77 74 -86 111 -8 34 -20 51 -52 74 -38 27 -63 78 -50 100 6 9 64
-31 64 -44z m334 37 c-4 -8 -11 -15 -16 -15 -6 0 -5 6 2 15 7 8 14 15 16 15 2
0 1 -7 -2 -15z m-127 -70 c0 -17 -13 -20 -21 -6 -4 5 0 12 6 14 7 3 13 6 14 6
0 1 1 -6 1 -14z"/>
<path d="M1360 541 c14 -11 29 -21 34 -21 20 0 -19 -279 -62 -447 l-18 -73
122 0 122 0 12 73 c6 39 19 92 28 117 18 50 17 73 -4 134 -30 84 -87 140 -219
215 -36 21 -38 21 -15 2z"/>
<path d="M315 475 c-83 -49 -118 -95 -147 -189 -20 -67 -21 -72 -5 -117 10
-26 20 -74 23 -108 l7 -61 119 0 c105 0 119 2 114 16 -36 93 -67 390 -48 458
7 22 10 41 9 41 -1 1 -33 -17 -72 -40z"/>
<path d="M143 85 c0 -44 2 -61 4 -37 2 23 2 59 0 80 -2 20 -4 1 -4 -43z"/>
</g>
</svg>
