<?xml version="1.0" standalone="no"?>
<!DOCTYPE svg PUBLIC "-//W3C//DTD SVG 20010904//EN"
 "http://www.w3.org/TR/2001/REC-SVG-20010904/DTD/svg10.dtd">
<svg version="1.0" xmlns="http://www.w3.org/2000/svg"
 width="1630.000000pt" height="635.000000pt" viewBox="0 0 1630.000000 635.000000"
 preserveAspectRatio="xMidYMid meet">

<g transform="translate(0.000000,635.000000) scale(0.100000,-0.100000)"
fill="#000000" stroke="none">
<path d="M434 6036 c-55 -25 -94 -69 -113 -125 -15 -47 -16 -5078 0 -5135 14
-50 82 -118 135 -134 30 -9 170 -12 520 -12 529 0 521 0 588 66 64 64 61 11
64 986 l3 888 258 0 258 0 669 -926 c368 -509 680 -938 694 -952 14 -13 43
-33 65 -43 37 -17 80 -19 661 -19 l622 0 53 28 c76 39 113 101 113 185 0 39
-7 74 -18 95 -9 18 -316 447 -682 954 -366 507 -668 926 -670 932 -2 6 38 33
89 59 137 71 268 169 392 292 122 122 186 209 269 366 142 269 206 541 206
870 0 324 -53 573 -175 825 -97 200 -246 367 -448 502 -245 164 -455 235 -878
298 -102 16 -246 18 -1369 21 l-1255 3 -51 -24z m2676 -214 c353 -55 535 -116
733 -245 240 -156 373 -331 467 -616 54 -162 71 -267 77 -481 6 -187 -2 -286
-33 -439 -47 -229 -169 -478 -317 -649 -155 -179 -395 -336 -645 -422 l-92
-33 23 -31 c83 -111 1477 -2045 1477 -2050 0 -3 -258 -6 -573 -6 l-574 0 -699
970 -699 969 -422 1 -423 0 0 -970 0 -970 -445 0 -445 0 0 2501 0 2500 1228
-4 c1191 -3 1231 -4 1362 -25z"/>
<path d="M1410 4314 l0 -717 558 6 c567 6 681 13 867 52 269 56 424 145 525
299 137 211 142 531 11 735 -42 65 -130 146 -210 192 -76 45 -243 101 -371
125 -84 16 -172 18 -737 22 l-643 3 0 -717z m1305 482 c54 -9 126 -23 160 -32
84 -23 212 -86 262 -129 89 -76 136 -234 114 -382 -44 -297 -267 -409 -866
-433 -126 -5 -348 -10 -492 -10 l-263 0 0 506 0 506 493 -5 c388 -4 513 -8
592 -21z"/>
<path d="M12560 5989 c-44 -18 -90 -59 -113 -102 l-22 -42 -3 -2525 c-3 -2839
-9 -2596 74 -2669 26 -22 62 -44 83 -48 20 -5 819 -8 1776 -8 l1740 0 42 22
c58 32 100 87 113 149 7 35 10 199 8 481 l-3 428 -25 45 c-14 24 -45 58 -68
75 l-44 30 -1191 5 -1192 5 -5 2016 -5 2015 -24 35 c-13 19 -42 48 -65 64
l-41 30 -505 2 c-320 1 -514 -2 -530 -8z m960 -2284 l0 -2085 1260 0 1260 0 0
-405 0 -405 -1700 0 -1700 0 0 2490 0 2490 440 0 440 0 0 -2085z"/>
<path d="M5988 5833 c-18 -22 -380 -937 -382 -967 -1 -28 2243 -4165 2269
-4181 17 -11 98 -2 526 60 279 40 515 76 525 79 12 4 500 803 1247 2040 1141
1891 1227 2036 1220 2067 -4 21 -108 170 -301 428 -162 218 -300 402 -306 409
-10 10 -483 20 -2317 47 -2746 41 -2462 39 -2481 18z m2447 -123 c1238 -17
2260 -34 2272 -38 25 -8 553 -705 553 -730 0 -13 -2380 -3983 -2405 -4010 -7
-7 -184 -37 -459 -75 -379 -54 -447 -61 -443 -48 2 9 459 771 1016 1694 556
923 1011 1686 1011 1696 0 46 18 45 -919 58 -487 7 -962 14 -1056 15 l-169 3
-183 320 -183 320 158 6 c86 4 870 10 1742 15 872 4 1540 11 1485 16 -55 4
-864 22 -1799 39 -1618 31 -1699 32 -1711 15 -9 -11 -10 -27 -5 -44 4 -15 235
-434 514 -931 305 -544 505 -910 501 -919 -9 -24 -357 -625 -369 -639 -9 -10
-222 349 -885 1482 -481 822 -876 1495 -878 1495 -3 0 8 -24 24 -52 17 -29
405 -734 863 -1567 616 -1118 840 -1516 857 -1524 16 -7 32 -7 48 -1 19 7 145
216 554 919 l529 910 69 6 c93 9 693 11 693 2 0 -10 -1924 -3342 -1931 -3343
-3 0 -495 903 -1094 2008 -598 1104 -1095 2019 -1103 2033 -16 29 -36 -28 238
667 l91 232 62 0 c34 1 1075 -13 2312 -30z m263 -1549 l262 -6 -264 -450
c-145 -247 -268 -450 -272 -452 -7 -2 -509 871 -522 908 -4 10 374 10 796 0z"/>
<path d="M6195 5490 c9 -16 18 -30 21 -30 2 0 -2 14 -11 30 -9 17 -18 30 -21
30 -2 0 2 -13 11 -30z"/>
</g>
</svg>
