<?xml version="1.0" standalone="no"?>
<!DOCTYPE svg PUBLIC "-//W3C//DTD SVG 20010904//EN"
 "http://www.w3.org/TR/2001/REC-SVG-20010904/DTD/svg10.dtd">
<svg version="1.0" xmlns="http://www.w3.org/2000/svg"
 width="224.000000pt" height="224.000000pt" viewBox="0 0 224.000000 224.000000"
 preserveAspectRatio="xMidYMid meet">

<g transform="translate(0.000000,224.000000) scale(0.100000,-0.100000)"
fill="#000000" stroke="none">
<path d="M995 1868 c-62 -17 -142 -104 -200 -219 l-49 -96 -68 33 c-38 18
-100 38 -139 44 -69 12 -174 5 -164 -10 3 -4 -3 -6 -12 -4 -22 6 -122 -53
-137 -80 -6 -11 -19 -28 -29 -38 -14 -15 -15 -22 -6 -41 11 -20 11 -21 -4 -8
-14 11 -17 11 -18 0 -1 -8 -1 -18 0 -23 1 -5 -4 -13 -11 -17 -23 -15 -17 -155
10 -214 13 -27 26 -52 30 -55 4 -3 12 -14 18 -25 15 -27 98 -82 142 -95 97
-27 208 -6 340 65 36 19 70 35 75 35 5 0 26 -15 48 -33 82 -71 214 -114 309
-101 l46 6 84 -118 c103 -147 196 -240 280 -282 66 -33 101 -39 145 -22 24 9
27 7 51 -48 49 -112 101 -162 168 -162 40 0 102 62 126 128 52 138 90 359 90
524 0 326 -91 573 -235 639 -55 25 -93 24 -150 -6 l-47 -26 -54 51 c-73 69
-130 93 -205 88 -43 -3 -68 -12 -100 -33 l-42 -30 -16 25 c-78 120 -178 174
-276 148z m116 -101 c36 -24 109 -114 109 -135 0 -14 -151 -201 -203 -251
l-35 -33 -82 80 -82 81 48 91 c94 178 161 224 245 167z m413 -67 c23 -11 63
-41 89 -68 l48 -49 -66 -89 c-36 -49 -76 -102 -89 -119 l-23 -30 -41 82 c-23
45 -62 116 -87 158 l-44 76 46 29 c56 36 108 39 167 10z m-957 -114 c66 -18
143 -54 149 -71 4 -10 -46 -126 -61 -143 -2 -2 -20 8 -42 22 -99 64 -213 72
-298 20 -57 -35 -105 -106 -108 -158 -1 -21 -6 -31 -11 -26 -11 11 -24 160
-14 154 5 -3 8 2 8 12 0 29 52 113 87 140 18 14 31 28 29 32 -2 4 6 8 17 9 12
0 38 6 57 11 51 15 128 14 187 -2z m760 -129 c40 -72 78 -147 84 -165 11 -31
9 -36 -22 -69 -79 -83 -217 -165 -227 -135 -2 7 -37 60 -78 118 l-74 106 89
101 c50 56 102 119 118 139 15 21 30 37 33 38 3 0 37 -60 77 -133z m556 92
c45 -37 98 -145 122 -249 23 -98 31 -360 16 -472 -17 -119 -57 -281 -81 -329
-39 -76 -65 -64 -122 58 l-39 82 20 38 c107 211 100 537 -17 787 l-36 78 23
19 c34 27 71 24 114 -12z m-138 -98 c65 -128 100 -337 84 -496 -8 -85 -54
-255 -68 -255 -3 0 -33 67 -65 148 -32 81 -84 204 -113 274 -30 70 -53 131
-51 135 8 21 174 243 180 243 4 0 19 -22 33 -49z m-869 -56 c35 -36 64 -71 64
-78 -1 -14 -106 -102 -123 -102 -7 0 -31 21 -55 47 l-43 46 38 76 c20 42 41
76 46 76 5 0 38 -29 73 -65z m-375 -40 c24 -8 57 -26 74 -39 29 -23 29 -24 11
-50 -27 -42 -96 -106 -136 -125 -82 -42 -131 -34 -156 25 -30 72 17 171 92
194 43 13 66 12 115 -5z m552 -175 c37 -52 67 -98 67 -103 0 -5 -24 -7 -52 -5
-62 5 -167 50 -199 84 l-23 24 25 17 c13 10 40 32 59 50 19 18 40 31 45 30 6
-2 40 -46 78 -97z m-343 14 c36 -40 38 -35 -36 -79 -47 -29 -148 -65 -178 -64
-20 0 -20 1 4 17 49 33 130 115 123 125 -3 6 -1 7 5 3 6 -3 16 3 22 14 15 27
22 26 60 -16z m793 -106 c67 -157 187 -457 187 -467 0 -6 -16 -13 -35 -17 -27
-5 -48 0 -90 20 -93 46 -181 139 -308 324 l-37 54 61 30 c33 17 86 54 117 84
31 29 60 53 63 54 4 0 22 -37 42 -82z"/>
</g>
</svg>
